<svg xmlns="http://www.w3.org/2000/svg" viewBox="0 0 512 512"><linearGradient id="a" x1="50%" x2="50%" y2="100%"><stop offset="0" stop-color="#578dbc"/><stop offset="1" stop-color="#082957"/></linearGradient><g fill="url(#a)"><path d="M504.5 78.5H464V36a7.5 7.5 0 0 0-7.5-7.5H7.5A7.5 7.5 0 0 0 0 36v322.667a7.5 7.5 0 0 0 15 0V93.5h434v73.083c0 4.142 3.357 7.5 7.5 7.5s7.5-3.358 7.5-7.5V143.5h33v325h-49.5a7.5 7.5 0 0 0-7.5 7.5 7.5 7.5 0 0 0 7.5 7.5h57a7.5 7.5 0 0 0 7.5-7.5V86a7.5 7.5 0 0 0-7.5-7.5zm-392.5 0H15v-35h97v35zm337 0H127v-35h322v35zm48 50h-33v-35h33v35z"/><path d="M456.5 191.5a7.5 7.5 0 0 0-7.5 7.5v219.5H15V391a7.5 7.5 0 0 0-15 0v35a7.5 7.5 0 0 0 7.5 7.5H48V476a7.5 7.5 0 0 0 7.5 7.5h360.542a7.5 7.5 0 0 0 7.5-7.5 7.5 7.5 0 0 0-7.5-7.5H63v-35h393.5a7.5 7.5 0 0 0 7.5-7.5V199a7.5 7.5 0 0 0-7.5-7.5z"/><path d="M307 325.167H147c-15.164 0-27.5 12.336-27.5 27.5v20c0 15.164 12.336 27.5 27.5 27.5h160c15.163 0 27.5-12.336 27.5-27.5v-20c0-15.164-12.337-27.5-27.5-27.5zm12.5 47.5c0 6.893-5.607 12.5-12.5 12.5H147c-6.893 0-12.5-5.607-12.5-12.5v-20c0-6.893 5.607-12.5 12.5-12.5h160c6.893 0 12.5 5.607 12.5 12.5v20z"/><circle cx="36.5" cy="61" r="7.5"/><circle cx="92.5" cy="61" r="7.5"/><circle cx="64.5" cy="61" r="7.5"/><path d="M179.387 278.543l-47.143-131.999a7.501 7.501 0 0 0-7.047-4.978h-.016a7.5 7.5 0 0 0-7.052 4.948c-.118.326-11.919 32.936-23.571 65.345-23.999 66.752-24.003 67.306-24.019 69.142a7.499 7.499 0 0 0 7.434 7.565h.067a7.503 7.503 0 0 0 7.338-5.948c.804-2.715 6.424-18.597 13.993-39.754h51.346l14.544 40.724a7.503 7.503 0 0 0 7.063 4.979 7.5 7.5 0 0 0 7.063-10.024zm-74.641-50.678a30090.051 30090.051 0 0 1 20.392-56.621l20.222 56.621h-40.614zM198.039 141.567h-2.572a7.5 7.5 0 0 0-7.5 7.5v132a7.5 7.5 0 0 0 7.5 7.5h2.572c40.528 0 73.5-32.972 73.5-73.5s-32.972-73.5-73.5-73.5zm4.928 131.793V156.772c29.959 2.511 53.571 27.697 53.571 58.294 0 30.597-23.612 55.784-53.571 58.294zM336.854 204.995h-15.816c-12.17 0-22.071-9.901-22.071-22.071v-4.286c0-12.17 9.901-22.071 22.071-22.071h9.429c12.17 0 22.071 9.901 22.071 22.071 0 4.142 3.357 7.5 7.5 7.5s7.5-3.358 7.5-7.5c0-20.441-16.63-37.071-37.071-37.071h-9.429c-20.441 0-37.071 16.63-37.071 37.071v4.286c0 20.441 16.63 37.071 37.071 37.071h15.816c8.648 0 15.684 7.036 15.684 15.684v15.816c0 12.17-9.901 22.072-22.071 22.072h-9.429c-12.17 0-22.071-9.901-22.071-22.072v-4.714a7.5 7.5 0 0 0-15 0v4.714c0 20.441 16.63 37.072 37.071 37.072h9.429c20.441 0 37.071-16.63 37.071-37.072v-15.816c0-16.919-13.765-30.684-30.684-30.684z"/></g></svg>