<?xml version="1.0" encoding="utf-8"?>
<!-- Generator: Adobe Illustrator 23.0.2, SVG Export Plug-In . SVG Version: 6.00 Build 0)  -->
<svg version="1.1" id="Слой_1" xmlns="http://www.w3.org/2000/svg" xmlns:xlink="http://www.w3.org/1999/xlink" x="0px" y="0px"
	 viewBox="0 0 411.3 473" style="enable-background:new 0 0 411.3 473;" xml:space="preserve">
<style type="text/css">
	.st0{fill:url(#SVGID_1_);}
	.st1{fill:url(#SVGID_2_);}
	.st2{fill:url(#SVGID_3_);}
</style>
<g>
	
		<linearGradient id="SVGID_1_" gradientUnits="userSpaceOnUse" x1="-99.0562" y1="632.662" x2="-99.0562" y2="631.662" gradientTransform="matrix(411.262 0 0 -473.0002 40943.7031 299249.25)">
		<stop  offset="0" style="stop-color:#082957"/>
		<stop  offset="1" style="stop-color:#578DBC"/>
	</linearGradient>
	<path class="st0" d="M407.6,115.9l-1.3-0.6c-70-30.1-136.1-68.4-197.1-114.1c-2.1-1.6-5.1-1.6-7.2,0c-61,45.7-127.1,84-197.1,114.1
		l-1.3,0.6C1.4,116.8,0,119,0,121.4v115.8c0,40.5,10.6,78.1,31.6,111.8c16.7,26.9,39.9,51.3,69,72.6c49.3,36.1,97.9,50.6,99.9,51.2
		c1.1,0.3,2.2,0.3,3.3,0c2.1-0.6,52.4-15,103.4-51.1c30.1-21.3,54.1-45.7,71.4-72.6c21.6-33.3,32.9-72.2,32.7-111.9V121.4
		C411.3,119,409.8,116.8,407.6,115.9L407.6,115.9z M399.3,237.2c0.2,37.3-10.4,73.9-30.7,105.3c-16.4,25.5-39.3,48.8-68.1,69.2
		c-44.3,31.4-89.2,46.2-98.3,49.1c-8.9-2.9-52.2-17.7-94.9-49c-27.8-20.4-49.9-43.7-65.7-69.2C22,310.8,12,275.3,12,237.2V125.3
		C80.6,95.6,145.6,58.1,205.6,13.5c60,44.6,125,82.1,193.7,111.9L399.3,237.2z"/>
	
		<linearGradient id="SVGID_2_" gradientUnits="userSpaceOnUse" x1="-99.0137" y1="632.6023" x2="-99.0137" y2="631.6023" gradientTransform="matrix(349.4819 0 0 -401.6756 34809.125 254136.5781)">
		<stop  offset="0" style="stop-color:#082957"/>
		<stop  offset="1" style="stop-color:#578DBC"/>
	</linearGradient>
	<path class="st1" d="M35.6,133.2l-1.1,0.5c-2.2,0.9-3.6,3.1-3.6,5.5v97.9c0,34.4,9,66.3,26.8,95c14.2,22.8,33.9,43.5,58.6,61.6
		c41.8,30.6,83,42.9,84.8,43.4c1.1,0.3,2.2,0.3,3.3,0c1.8-0.5,44.4-12.8,87.7-43.3c25.6-18.1,45.9-38.8,60.6-61.6
		c18.3-28.3,28-61.4,27.8-95.1v-97.9c0-2.4-1.4-4.6-3.6-5.5l-1.1-0.5c-59.1-25.4-114.9-57.8-166.4-96.4c-2.1-1.6-5.1-1.6-7.2,0
		C150.6,75.4,94.7,107.8,35.6,133.2L35.6,133.2z M368.4,143.1v94c0.2,31.4-8.8,62.1-25.8,88.4c-3.7,5.7-7.7,11.2-12,16.5v-0.8
		c0-3.3-2.7-6-6-6c-3.3,0-6,2.7-6,6v12.2c0,0.6,0.1,1.2,0.3,1.7c-10.3,10.5-21.5,20.1-33.6,28.6c-25.4,17.7-53.2,31.7-82.6,41.3
		c-28.5-9.7-55.3-23.6-79.7-41.2c-11.2-8.2-21.7-17.3-31.3-27.3c0.5-0.9,0.8-1.9,0.8-3v-12.2c0-3.3-2.7-6-6-6c-3.3,0-6,2.7-6,6v2.4
		c-4.6-5.8-8.9-11.8-12.8-18.1c-16.5-26.7-24.9-56.5-24.9-88.5v-94c57.7-25,112.3-56.6,162.8-94C256.1,86.6,310.7,118.1,368.4,143.1
		L368.4,143.1z"/>
	
		<linearGradient id="SVGID_3_" gradientUnits="userSpaceOnUse" x1="-98.8291" y1="632.4012" x2="-98.8291" y2="631.4012" gradientTransform="matrix(211.6183 0 0 -266.3557 21119.6895 168536.7656)">
		<stop  offset="0" style="stop-color:#082957"/>
		<stop  offset="1" style="stop-color:#578DBC"/>
	</linearGradient>
	<path class="st2" d="M205.6,335.3c-3.3,0-6,2.7-6,6v12.2c0.1,3.3,2.8,5.9,6.1,5.9c3.2-0.1,5.8-2.7,5.9-5.9v-12.2
		C211.6,338,208.9,335.3,205.6,335.3z M245.3,335.3c-3.3,0-6,2.7-6,6v12.2c0,3.3,2.7,6,6,6c3.3,0,6-2.7,6-6v-12.2
		C251.3,338,248.6,335.3,245.3,335.3z M285,335.3c-3.3,0-6,2.7-6,6v12.2c0.1,3.3,2.8,5.9,6.1,5.9c3.2-0.1,5.8-2.7,5.9-5.9v-12.2
		C291,338,288.3,335.3,285,335.3z M166,335.3c-3.3,0-6,2.7-6,6v12.2c0,3.3,2.7,6,6,6c3.3,0,6-2.7,6-6v-12.2
		C171.9,338,169.3,335.3,166,335.3z M126.3,335.3c-3.3,0-6,2.7-6,6v12.2c0.1,3.3,2.8,5.9,6.1,5.9c3.2-0.1,5.8-2.7,5.9-5.9v-12.2
		C132.3,338,129.6,335.3,126.3,335.3z M154.3,244.4l-34.4,10c-2.6,0.7-4.3,3.1-4.3,5.8v17.5h-9.8c-3.3,0-6,2.7-6,6c0,3.3,2.7,6,6,6
		h15.7c3.3,0,6-2.7,6-6v-19l27.4-7.9c3.9,25,25.5,43.4,50.7,43.4c25.3,0,46.8-18.4,50.7-43.3l27.3,7.9v19c0,3.3,2.7,6,6,6h15.7
		c3.3,0,6-2.7,6-6c0-3.3-2.7-6-6-6h-9.8v-17.5c0-2.7-1.8-5-4.3-5.8l-34.4-10v-27.6l26.7,7.8v19c0,3.3,2.7,6,6,6h15.7
		c3.3,0,6-2.7,6-6c0-3.3-2.7-6-6-6h-9.8v-17.5c0-2.7-1.8-5-4.3-5.8l-34.4-10v-19.2c0-17.8-9.2-34.3-24.3-43.6
		c9.2-5.9,14.7-16.1,14.7-27V99.1c0-3.3-2.7-6-6-6c-3.3,0-6,2.7-6,6v15.4c0,11.1-9,20.2-20.2,20.2h0c-6.3-1.2-12.8-1.2-19.2,0h0
		c-11.1,0-20.2-9-20.2-20.2V99.1c0-3.3-2.7-6-6-6c-3.3,0-6,2.7-6,6v15.4c0,10.9,5.5,21.1,14.7,27c-15.1,9.4-24.3,25.9-24.3,43.6
		v19.2l-34.4,10c-2.6,0.7-4.3,3.1-4.3,5.8v17.5h-9.8c-3.3,0.1-5.9,2.8-5.9,6.1c0.1,3.2,2.7,5.8,5.9,5.9h15.7c3.3,0,6-2.7,6-6v-19
		l26.7-7.8L154.3,244.4z M166.3,191.1h33.4v54.1c-8.4-10.1-20.4-16.5-33.4-18.1L166.3,191.1z M245,191.1v36c-13,1.5-25,8-33.4,18.1
		v-54.1H245z M166.3,248.6v-9.5c19.2,3,33.4,19.5,33.4,38.9v9.5C180.5,284.6,166.3,268.1,166.3,248.6L166.3,248.6z M211.6,287.6
		v-9.5c0-19.4,14.2-36,33.4-38.9v9.5C245,268.1,230.8,284.6,211.6,287.6L211.6,287.6z M205.6,145.7c19.4,0,36,14.2,38.9,33.4h-77.9
		C169.7,159.9,186.2,145.8,205.6,145.7L205.6,145.7z"/>
</g>
</svg>
