<svg xmlns="http://www.w3.org/2000/svg" viewBox="0 0 411.3 473"><linearGradient id="a" gradientUnits="userSpaceOnUse" x1="-99.056" y1="632.662" x2="-99.056" y2="631.662" gradientTransform="matrix(411.262 0 0 -473.0002 40943.703 299249.25)"><stop offset="0" stop-color="#082957"/><stop offset="1" stop-color="#578dbc"/></linearGradient><path d="M407.6 115.9l-1.3-.6c-70-30.1-136.1-68.4-197.1-114.1-2.1-1.6-5.1-1.6-7.2 0-61 45.7-127.1 84-197.1 114.1l-1.3.6c-2.2.9-3.6 3.1-3.6 5.5v115.8c0 40.5 10.6 78.1 31.6 111.8 16.7 26.9 39.9 51.3 69 72.6 49.3 36.1 97.9 50.6 99.9 51.2 1.1.3 2.2.3 3.3 0 2.1-.6 52.4-15 103.4-51.1 30.1-21.3 54.1-45.7 71.4-72.6 21.6-33.3 32.9-72.2 32.7-111.9V121.4c0-2.4-1.5-4.6-3.7-5.5zm-8.3 121.3c.2 37.3-10.4 73.9-30.7 105.3-16.4 25.5-39.3 48.8-68.1 69.2-44.3 31.4-89.2 46.2-98.3 49.1-8.9-2.9-52.2-17.7-94.9-49-27.8-20.4-49.9-43.7-65.7-69.2C22 310.8 12 275.3 12 237.2V125.3C80.6 95.6 145.6 58.1 205.6 13.5c60 44.6 125 82.1 193.7 111.9v111.8z" fill="url(#a)"/><linearGradient id="b" gradientUnits="userSpaceOnUse" x1="-99.014" y1="632.602" x2="-99.014" y2="631.602" gradientTransform="matrix(349.4819 0 0 -401.6756 34809.125 254136.578)"><stop offset="0" stop-color="#082957"/><stop offset="1" stop-color="#578dbc"/></linearGradient><path d="M35.6 133.2l-1.1.5c-2.2.9-3.6 3.1-3.6 5.5v97.9c0 34.4 9 66.3 26.8 95 14.2 22.8 33.9 43.5 58.6 61.6 41.8 30.6 83 42.9 84.8 43.4 1.1.3 2.2.3 3.3 0 1.8-.5 44.4-12.8 87.7-43.3 25.6-18.1 45.9-38.8 60.6-61.6 18.3-28.3 28-61.4 27.8-95.1v-97.9c0-2.4-1.4-4.6-3.6-5.5l-1.1-.5c-59.1-25.4-114.9-57.8-166.4-96.4-2.1-1.6-5.1-1.6-7.2 0-51.6 38.6-107.5 71-166.6 96.4zm332.8 9.9v94c.2 31.4-8.8 62.1-25.8 88.4-3.7 5.7-7.7 11.2-12 16.5v-.8c0-3.3-2.7-6-6-6s-6 2.7-6 6v12.2c0 .6.1 1.2.3 1.7-10.3 10.5-21.5 20.1-33.6 28.6-25.4 17.7-53.2 31.7-82.6 41.3-28.5-9.7-55.3-23.6-79.7-41.2-11.2-8.2-21.7-17.3-31.3-27.3.5-.9.8-1.9.8-3v-12.2c0-3.3-2.7-6-6-6s-6 2.7-6 6v2.4c-4.6-5.8-8.9-11.8-12.8-18.1-16.5-26.7-24.9-56.5-24.9-88.5v-94c57.7-25 112.3-56.6 162.8-94 50.5 37.5 105.1 69 162.8 94z" fill="url(#b)"/><linearGradient id="c" gradientUnits="userSpaceOnUse" x1="-98.829" y1="632.401" x2="-98.829" y2="631.401" gradientTransform="matrix(211.6183 0 0 -266.3557 21119.69 168536.766)"><stop offset="0" stop-color="#082957"/><stop offset="1" stop-color="#578dbc"/></linearGradient><path d="M205.6 335.3c-3.3 0-6 2.7-6 6v12.2c.1 3.3 2.8 5.9 6.1 5.9 3.2-.1 5.8-2.7 5.9-5.9v-12.2c0-3.3-2.7-6-6-6zm39.7 0c-3.3 0-6 2.7-6 6v12.2c0 3.3 2.7 6 6 6s6-2.7 6-6v-12.2c0-3.3-2.7-6-6-6zm39.7 0c-3.3 0-6 2.7-6 6v12.2c.1 3.3 2.8 5.9 6.1 5.9 3.2-.1 5.8-2.7 5.9-5.9v-12.2c0-3.3-2.7-6-6-6zm-119 0c-3.3 0-6 2.7-6 6v12.2c0 3.3 2.7 6 6 6s6-2.7 6-6v-12.2c-.1-3.3-2.7-6-6-6zm-39.7 0c-3.3 0-6 2.7-6 6v12.2c.1 3.3 2.8 5.9 6.1 5.9 3.2-.1 5.8-2.7 5.9-5.9v-12.2c0-3.3-2.7-6-6-6zm28-90.9l-34.4 10c-2.6.7-4.3 3.1-4.3 5.8v17.5h-9.8c-3.3 0-6 2.7-6 6s2.7 6 6 6h15.7c3.3 0 6-2.7 6-6v-19l27.4-7.9c3.9 25 25.5 43.4 50.7 43.4 25.3 0 46.8-18.4 50.7-43.3l27.3 7.9v19c0 3.3 2.7 6 6 6h15.7c3.3 0 6-2.7 6-6s-2.7-6-6-6h-9.8v-17.5c0-2.7-1.8-5-4.3-5.8l-34.4-10v-27.6l26.7 7.8v19c0 3.3 2.7 6 6 6h15.7c3.3 0 6-2.7 6-6s-2.7-6-6-6h-9.8v-17.5c0-2.7-1.8-5-4.3-5.8l-34.4-10v-19.2c0-17.8-9.2-34.3-24.3-43.6 9.2-5.9 14.7-16.1 14.7-27V99.1c0-3.3-2.7-6-6-6s-6 2.7-6 6v15.4c0 11.1-9 20.2-20.2 20.2-6.3-1.2-12.8-1.2-19.2 0-11.1 0-20.2-9-20.2-20.2V99.1c0-3.3-2.7-6-6-6s-6 2.7-6 6v15.4c0 10.9 5.5 21.1 14.7 27-15.1 9.4-24.3 25.9-24.3 43.6v19.2l-34.4 10c-2.6.7-4.3 3.1-4.3 5.8v17.5h-9.8c-3.3.1-5.9 2.8-5.9 6.1.1 3.2 2.7 5.8 5.9 5.9h15.7c3.3 0 6-2.7 6-6v-19l26.7-7.8.5 27.6zm12-53.3h33.4v54.1c-8.4-10.1-20.4-16.5-33.4-18.1v-36zm78.7 0v36c-13 1.5-25 8-33.4 18.1v-54.1H245zm-78.7 57.5v-9.5c19.2 3 33.4 19.5 33.4 38.9v9.5c-19.2-2.9-33.4-19.4-33.4-38.9zm45.3 39v-9.5c0-19.4 14.2-36 33.4-38.9v9.5c0 19.4-14.2 35.9-33.4 38.9zm-6-141.9c19.4 0 36 14.2 38.9 33.4h-77.9c3.1-19.2 19.6-33.3 39-33.4z" fill="url(#c)"/></svg>