<svg height="512pt" viewBox="0 -9 512 512" width="512pt" xmlns="http://www.w3.org/2000/svg"><linearGradient id="a" x1="50%" x2="50%" y2="100%"><stop offset="0" stop-color="#082957"/><stop offset="1" stop-color="#578dbc"/></linearGradient><g fill="url(#a)"><path d="M476.027 0H35.973C16.137 0 0 16.137 0 35.973v328.472c0 19.836 16.137 35.973 35.969 35.973h163.746l-14.25 74.082h-44.281c-5.524 0-10 4.477-10 10s4.476 10 10 10h229.632c5.524 0 10-4.477 10-10s-4.476-10-10-10H326.54l-14.254-74.082h163.746c19.832 0 35.969-16.137 35.969-35.973V35.973C512 16.137 495.863 0 476.027 0zM35.973 20h440.054C484.836 20 492 27.164 492 35.973v273.093h-26.152V55.816c0-5.523-4.477-10-10-10H56.152c-5.523 0-10 4.477-10 10v253.25H20V35.973C20 27.164 27.164 20 35.973 20zM492 364.441c0 8.809-7.164 15.977-15.973 15.977H35.973c-8.809 0-15.973-7.168-15.973-15.977v-35.375h36.113c.016 0 .028.004.04.004.015 0 .027-.004.038-.004h28.247c5.523 0 10-4.476 10-10 0-5.52-4.477-10-10-10H66.152V65.816h379.696v243.25H164.723c-5.524 0-10 4.477-10 10 0 5.524 4.476 10 10 10h291.086c.011 0 .027.004.039.004.011 0 .023-.004.039-.004H492zM306.172 474.504H205.828l14.254-74.086h71.836zm0 0"/><path d="M134.09 315.242c-1.602-3.847-5.563-6.383-9.735-6.156-4.05.223-7.664 2.918-8.964 6.77-1.336 3.945-.036 8.456 3.246 11.042 3.285 2.594 7.93 2.86 11.492.66 4.121-2.55 5.793-7.847 3.96-12.316zm0 0M177.54 284.988h158.597c10.34 0 19.601-5.343 24.773-14.3 5.168-8.958 5.168-19.653 0-28.61l-79.3-137.348c-5.169-8.957-14.43-14.304-24.774-14.304-10.34 0-19.606 5.347-24.774 14.304l-79.296 137.348c-5.172 8.957-5.172 19.652 0 28.61 5.168 8.957 14.43 14.3 24.773 14.3zm-7.458-32.91l79.3-137.348c2.243-3.882 5.958-4.304 7.454-4.304 1.492 0 5.21.418 7.453 4.304l79.3 137.348c2.243 3.887.747 7.313 0 8.61-.745 1.292-2.968 4.3-7.452 4.3H177.539c-4.484 0-6.707-3.008-7.453-4.3-.75-1.297-2.246-4.723-.004-8.61zm0 0"/><path d="M256.379 215.84c5.523 0 10-4.477 10-10v-55.684c0-5.52-4.477-10-10-10-5.524 0-10 4.48-10 10v55.684c0 5.523 4.476 10 10 10zm0 0M256.836 227.383c-5.524 0-10 4.476-10 10v8.137c0 5.523 4.476 10 10 10 5.523 0 10-4.477 10-10v-8.137c0-5.524-4.477-10-10-10zm0 0"/></g></svg>